<svg width="72" height="18" viewBox="0 0 72 18" fill="none" xmlns="http://www.w3.org/2000/svg">
<path d="M0.516 8.812C0.516 7.996 0.7 7.264 1.068 6.616C1.436 5.96 1.936 5.448 2.568 5.08C3.208 4.712 3.916 4.528 4.692 4.528C5.604 4.528 6.4 4.748 7.08 5.188C7.76 5.628 8.256 6.252 8.568 7.06H7.26C7.028 6.556 6.692 6.168 6.252 5.896C5.82 5.624 5.3 5.488 4.692 5.488C4.108 5.488 3.584 5.624 3.12 5.896C2.656 6.168 2.292 6.556 2.028 7.06C1.764 7.556 1.632 8.14 1.632 8.812C1.632 9.476 1.764 10.06 2.028 10.564C2.292 11.06 2.656 11.444 3.12 11.716C3.584 11.988 4.108 12.124 4.692 12.124C5.3 12.124 5.82 11.992 6.252 11.728C6.692 11.456 7.028 11.068 7.26 10.564H8.568C8.256 11.364 7.76 11.984 7.08 12.424C6.4 12.856 5.604 13.072 4.692 13.072C3.916 13.072 3.208 12.892 2.568 12.532C1.936 12.164 1.436 11.656 1.068 11.008C0.7 10.36 0.516 9.628 0.516 8.812ZM11.2855 4.12V13H10.1935V4.12H11.2855ZM18.9787 6.424V13H17.8867V12.028C17.6787 12.364 17.3867 12.628 17.0107 12.82C16.6427 13.004 16.2347 13.096 15.7867 13.096C15.2747 13.096 14.8147 12.992 14.4067 12.784C13.9987 12.568 13.6747 12.248 13.4347 11.824C13.2027 11.4 13.0867 10.884 13.0867 10.276V6.424H14.1667V10.132C14.1667 10.78 14.3307 11.28 14.6587 11.632C14.9867 11.976 15.4347 12.148 16.0027 12.148C16.5867 12.148 17.0467 11.968 17.3827 11.608C17.7187 11.248 17.8867 10.724 17.8867 10.036V6.424H18.9787ZM21.9144 7.648C22.1384 7.256 22.4664 6.936 22.8984 6.688C23.3304 6.44 23.8224 6.316 24.3744 6.316C24.9664 6.316 25.4984 6.456 25.9704 6.736C26.4424 7.016 26.8144 7.412 27.0864 7.924C27.3584 8.428 27.4944 9.016 27.4944 9.688C27.4944 10.352 27.3584 10.944 27.0864 11.464C26.8144 11.984 26.4384 12.388 25.9584 12.676C25.4864 12.964 24.9584 13.108 24.3744 13.108C23.8064 13.108 23.3064 12.984 22.8744 12.736C22.4504 12.488 22.1304 12.172 21.9144 11.788V13H20.8224V4.12H21.9144V7.648ZM26.3784 9.688C26.3784 9.192 26.2784 8.76 26.0784 8.392C25.8784 8.024 25.6064 7.744 25.2624 7.552C24.9264 7.36 24.5544 7.264 24.1464 7.264C23.7464 7.264 23.3744 7.364 23.0304 7.564C22.6944 7.756 22.4224 8.04 22.2144 8.416C22.0144 8.784 21.9144 9.212 21.9144 9.7C21.9144 10.196 22.0144 10.632 22.2144 11.008C22.4224 11.376 22.6944 11.66 23.0304 11.86C23.3744 12.052 23.7464 12.148 24.1464 12.148C24.5544 12.148 24.9264 12.052 25.2624 11.86C25.6064 11.66 25.8784 11.376 26.0784 11.008C26.2784 10.632 26.3784 10.192 26.3784 9.688ZM33.8758 11.14H30.2278L29.5558 13H28.4038L31.4278 4.684H32.6878L35.6998 13H34.5478L33.8758 11.14ZM33.5638 10.252L32.0518 6.028L30.5398 10.252H33.5638ZM38.1098 4.12V13H37.0178V4.12H38.1098ZM45.8029 6.424V13H44.7109V12.028C44.5029 12.364 44.2109 12.628 43.8349 12.82C43.4669 13.004 43.0589 13.096 42.6109 13.096C42.0989 13.096 41.6389 12.992 41.2309 12.784C40.8229 12.568 40.4989 12.248 40.2589 11.824C40.0269 11.4 39.9109 10.884 39.9109 10.276V6.424H40.9909V10.132C40.9909 10.78 41.1549 11.28 41.4829 11.632C41.8109 11.976 42.2589 12.148 42.8269 12.148C43.4109 12.148 43.8709 11.968 44.2069 11.608C44.5429 11.248 44.7109 10.724 44.7109 10.036V6.424H45.8029ZM55.5547 6.304C56.0667 6.304 56.5227 6.412 56.9227 6.628C57.3227 6.836 57.6387 7.152 57.8707 7.576C58.1027 8 58.2187 8.516 58.2187 9.124V13H57.1387V9.28C57.1387 8.624 56.9747 8.124 56.6467 7.78C56.3267 7.428 55.8907 7.252 55.3387 7.252C54.7707 7.252 54.3187 7.436 53.9827 7.804C53.6467 8.164 53.4787 8.688 53.4787 9.376V13H52.3987V9.28C52.3987 8.624 52.2347 8.124 51.9067 7.78C51.5867 7.428 51.1507 7.252 50.5987 7.252C50.0307 7.252 49.5787 7.436 49.2427 7.804C48.9067 8.164 48.7387 8.688 48.7387 9.376V13H47.6467V6.424H48.7387V7.372C48.9547 7.028 49.2427 6.764 49.6027 6.58C49.9707 6.396 50.3747 6.304 50.8147 6.304C51.3667 6.304 51.8547 6.428 52.2787 6.676C52.7027 6.924 53.0187 7.288 53.2267 7.768C53.4107 7.304 53.7147 6.944 54.1387 6.688C54.5627 6.432 55.0347 6.304 55.5547 6.304ZM63.2139 6.304C64.0139 6.304 64.6619 6.548 65.1579 7.036C65.6539 7.516 65.9019 8.212 65.9019 9.124V13H64.8219V9.28C64.8219 8.624 64.6579 8.124 64.3299 7.78C64.0019 7.428 63.5539 7.252 62.9859 7.252C62.4099 7.252 61.9499 7.432 61.6059 7.792C61.2699 8.152 61.1019 8.676 61.1019 9.364V13H60.0099V6.424H61.1019V7.36C61.3179 7.024 61.6099 6.764 61.9779 6.58C62.3539 6.396 62.7659 6.304 63.2139 6.304Z" fill="black"/>
<circle cx="69.5775" cy="6.57746" r="1.57746" fill="black"/>
<path d="M71.1549 10.1831C71.1549 11.0543 70.4487 13 69.5775 13C68.7063 13 68 11.0543 68 10.1831C68 9.31188 68.7063 8.60562 69.5775 8.60562C70.4487 8.60562 71.1549 9.31188 71.1549 10.1831Z" fill="black"/>
</svg>
